<?xml version="1.0" standalone="no"?>
<!DOCTYPE svg PUBLIC "-//W3C//DTD SVG 20010904//EN"
 "http://www.w3.org/TR/2001/REC-SVG-20010904/DTD/svg10.dtd">
<svg version="1.0" xmlns="http://www.w3.org/2000/svg"
 width="560.000000pt" height="560.000000pt" viewBox="0 0 560.000000 560.000000"
 preserveAspectRatio="xMidYMid meet">

<g transform="translate(0.000000,560.000000) scale(0.100000,-0.100000)"
fill="#000000" stroke="none">
<path d="M0 2800 l0 -2800 2800 0 2800 0 0 2800 0 2800 -2800 0 -2800 0 0
-2800z m5590 0 l0 -2790 -2790 0 -2790 0 0 2790 0 2790 2790 0 2790 0 0 -2790z"/>
<path d="M2016 4336 c-104 -44 -187 -150 -202 -258 -11 -77 36 -186 124 -291
l40 -49 -33 -71 c-90 -196 -137 -398 -136 -588 0 -173 26 -263 104 -362 16
-21 26 -42 21 -46 -5 -4 -39 -29 -76 -55 -73 -51 -130 -117 -149 -173 -31 -94
13 -223 120 -350 32 -38 62 -81 66 -94 21 -65 86 -135 147 -158 l26 -10 4
-218 c3 -201 5 -222 26 -268 49 -107 139 -161 262 -156 92 3 179 73 235 188
l28 58 180 -1 179 -1 34 -64 c65 -121 147 -181 247 -180 104 0 184 45 232 132
l30 54 3 225 3 226 55 28 c57 30 97 78 124 146 8 19 38 62 67 95 65 72 119
177 128 247 13 106 -52 208 -193 300 l-52 35 31 39 c154 191 144 542 -26 939
l-36 83 51 64 c104 129 132 236 90 347 -46 125 -152 200 -290 209 -63 4 -85 1
-128 -18 -62 -27 -122 -91 -142 -150 -16 -47 -6 -46 -140 -9 -76 21 -105 24
-270 24 -171 0 -193 -2 -283 -28 -55 -15 -103 -25 -107 -22 -5 3 -11 18 -15
35 -10 45 -59 106 -111 136 -39 23 -62 28 -128 31 -69 3 -90 0 -140 -21z
m1524 -128 c78 -33 130 -98 130 -164 0 -37 -25 -86 -72 -139 l-40 -46 -73 78
c-40 43 -95 94 -124 113 -45 30 -51 38 -46 60 30 120 101 151 225 98z m-1320
9 c25 -12 70 -87 70 -117 0 -8 -30 -38 -66 -65 -37 -28 -89 -77 -117 -110 -27
-33 -53 -61 -57 -63 -9 -3 -71 71 -90 107 -37 71 -30 127 22 181 65 66 176 98
238 67z m804 -132 c89 -19 236 -91 303 -148 213 -183 335 -469 359 -839 10
-159 -25 -253 -128 -343 -120 -105 -413 -192 -678 -202 -218 -9 -382 15 -595
84 -170 55 -280 135 -332 241 -27 55 -28 63 -27 197 3 351 139 685 347 856 74
60 220 133 297 148 30 6 64 13 75 15 55 10 316 4 379 -9z m-374 -1615 c0 -5
-2 -10 -4 -10 -3 0 -8 5 -11 10 -3 6 -1 10 4 10 6 0 11 -4 11 -10z m28 -15
c-3 -3 -9 2 -12 12 -6 14 -5 15 5 6 7 -7 10 -15 7 -18z m335 13 c15 -12 14
-13 -14 -14 -20 -1 -26 2 -17 7 19 12 -4 11 -39 -1 -26 -9 -27 -9 -9 5 24 18
56 19 79 3z m-409 -29 c-3 -5 4 -9 15 -9 24 0 24 0 11 -34 -5 -14 -11 -52 -14
-86 -4 -53 -3 -61 12 -58 10 2 19 16 22 33 4 24 11 31 33 33 35 4 35 -14 0
-23 -17 -5 -22 -9 -14 -12 11 -5 11 -7 0 -14 -12 -7 -12 -10 0 -21 11 -11 13
-11 6 1 -6 11 -4 13 9 8 10 -4 15 -3 11 3 -3 6 4 10 15 10 14 0 20 5 17 13 -6
15 30 20 142 21 88 0 90 -1 106 -49 6 -20 7 -20 25 2 9 12 19 20 22 18 4 -4 7
18 8 70 1 22 4 26 10 15 6 -9 10 -10 10 -3 0 20 -12 43 -20 38 -5 -3 -7 3 -6
12 2 10 -2 21 -8 25 -8 6 -8 8 0 8 7 0 19 -11 27 -24 9 -13 30 -26 48 -30 61
-12 175 -74 203 -110 28 -37 56 -129 56 -186 0 -19 -7 -78 -15 -130 -35 -212
-132 -324 -326 -377 -85 -23 -306 -23 -402 0 -193 47 -298 160 -332 361 -35
207 -5 320 101 382 36 21 187 84 203 84 2 0 -2 -6 -8 -14 -7 -8 -8 -16 -4 -19
5 -3 8 -20 7 -39 -2 -39 21 -69 29 -37 3 10 1 22 -4 25 -12 7 -11 54 1 54 15
0 12 29 -5 46 -11 11 -15 12 -15 3 0 -7 -3 -10 -6 -6 -3 3 -3 15 1 27 5 17 10
19 21 9 7 -6 11 -15 8 -20z m155 -24 c-8 -7 -32 -15 -54 -18 -22 -3 -32 -3
-22 -1 9 3 17 9 17 14 0 5 9 12 20 15 11 4 17 11 14 17 -4 6 3 5 16 -2 19 -10
20 -14 9 -25z m117 20 c-11 -8 -27 -15 -35 -15 -11 0 -10 4 5 15 10 8 26 14
34 14 11 0 10 -3 -4 -14z m68 -22 c3 -8 -2 -13 -14 -13 -11 0 -20 6 -20 13 0
8 7 14 15 14 8 0 16 -6 19 -14z m39 -10 c-4 -9 2 -16 15 -20 27 -7 17 -35 -12
-31 -16 2 -20 9 -18 26 2 13 -2 29 -8 37 -9 11 -7 12 9 8 12 -3 17 -10 14 -20z
m-153 3 c0 -2 -7 -7 -16 -10 -8 -3 -12 -2 -9 4 6 10 25 14 25 6z m-45 -16 c-3
-5 -18 -10 -33 -9 l-27 1 25 8 c35 11 42 11 35 0z m-65 -20 c11 -7 5 -10 -22
-10 -29 0 -38 -4 -39 -17 0 -11 -2 -13 -6 -5 -14 35 30 56 67 32z m138 -24
c16 5 16 5 0 -5 -16 -11 -93 -9 -104 2 -3 3 14 9 38 14 32 7 44 6 46 -3 2 -7
11 -11 20 -8z m-742 -57 c-3 -17 -6 -38 -6 -47 0 -13 -3 -12 -20 3 -24 22 -25
33 -3 57 24 27 36 22 29 -13z m1417 -23 c-3 -6 -11 -17 -16 -24 -14 -18 -27 3
-27 47 l0 34 25 -23 c13 -12 22 -28 18 -34z"/>
<path d="M2497 3846 c-138 -50 -289 -191 -366 -344 -55 -108 -50 -204 13 -287
35 -46 115 -94 177 -107 84 -17 129 0 206 77 35 35 63 68 63 73 0 6 -17 4 -41
-4 -101 -35 -202 50 -202 171 0 103 70 175 170 175 82 0 133 -49 154 -150 l12
-55 21 45 c18 38 21 64 21 160 0 103 -3 120 -25 165 -43 86 -112 113 -203 81z"/>
<path d="M2985 3850 c-58 -24 -91 -81 -107 -185 -13 -82 -4 -159 27 -230 l17
-40 12 56 c21 102 72 149 162 149 137 0 211 -164 128 -283 -45 -63 -104 -84
-177 -64 -26 7 -27 6 -17 -13 17 -32 85 -97 122 -117 101 -53 275 15 333 131
61 123 12 270 -144 427 -139 140 -274 204 -356 169z"/>
<path d="M2504 3510 c-84 -33 -63 -183 25 -183 76 0 116 104 61 157 -30 29
-58 37 -86 26z"/>
<path d="M3033 3500 c-63 -38 -54 -145 14 -171 83 -31 147 97 80 159 -34 31
-59 34 -94 12z"/>
<path d="M2727 3271 c-71 -15 -71 -41 2 -103 27 -23 40 -42 41 -63 5 -70 3
-73 -53 -91 -51 -16 -54 -16 -104 6 -28 12 -65 37 -82 56 -35 38 -46 42 -55
18 -10 -25 -7 -40 14 -98 56 -148 220 -238 377 -206 118 24 204 94 244 200 21
55 25 105 8 115 -5 4 -31 -13 -58 -38 -67 -62 -108 -75 -177 -51 l-54 18 0 51
c0 45 3 53 26 66 58 31 93 99 58 113 -28 11 -148 15 -187 7z"/>
<path d="M2892 2291 c-10 -6 -10 -10 3 -21 12 -10 15 -10 15 3 0 11 6 15 18
11 14 -5 15 -4 2 5 -18 13 -21 13 -38 2z"/>
</g>
</svg>
